<?xml version="1.0" encoding="UTF-8"?>
<svg width="351px" height="6px" viewBox="0 0 351 6" version="1.1" xmlns="http://www.w3.org/2000/svg" xmlns:xlink="http://www.w3.org/1999/xlink">
    <!-- Generator: Sketch 48.2 (47327) - http://www.bohemiancoding.com/sketch -->
    <title>Fill 20</title>
    <desc>Created with Sketch.</desc>
    <defs></defs>
    <g id="Travel" stroke="none" stroke-width="1" fill="none" fill-rule="evenodd" transform="translate(-406.000000, -3376.000000)">
        <g id="Features-#1-Copy-2" transform="translate(405.567233, 3013.730471)" fill="#F7F9FA">
            <path d="M222.690863,363.470605 C225.334395,363.320965 222.125736,363.171326 222.518472,363.013012 C221.812519,363.056386 220.30956,363.026024 221.019763,363.146386 C219.633957,362.828674 216.828353,363.323134 215.329643,363.069398 C215.264693,363.101928 216.132719,363.204941 215.095944,363.284098 C213.545032,363.315544 213.657936,363.166989 213.02543,363.101928 C212.564709,363.193013 210.2089,363.258074 210.437136,363.213615 C209.406432,363.290604 211.535826,363.524822 210.095996,363.661449 C209.121137,363.875064 207.796032,363.693979 206.646961,363.752534 C205.264797,363.602894 208.025482,363.648437 208.598501,363.57687 L204.689351,363.674461 C203.539673,363.563858 205.205917,363.466267 206.358024,363.492291 C204.799827,363.356749 202.791228,363.480364 202.331114,363.654943 C201.35322,363.616991 200.836046,363.656027 199.915211,363.584461 C200.83119,363.48687 200.774131,363.181085 202.209712,363.130121 C204.570377,363.149639 201.35322,363.363255 203.361818,363.408797 L203.534209,363.226628 C204.395558,363.330724 205.08148,363.194097 206.005957,363.181085 C206.521917,363.226628 205.893053,363.246146 205.547664,363.27217 C207.217551,363.259158 208.545084,363.355664 209.805238,363.148555 C207.55687,362.979397 204.166715,363.207109 203.183357,363 L198.703618,363.253736 C198.703618,363.338315 200.2606,363.473858 198.994983,363.597473 C198.474774,363.382773 197.152705,363.286266 195.424545,363.24723 C196.062514,363.480364 192.664467,363.456508 193.531278,363.644099 C194.336782,363.52699 194.741051,363.721088 194.853955,363.740606 C193.184068,363.754702 194.628147,363.955306 193.70974,363.967234 C190.658903,363.917354 193.822644,363.818679 190.828866,363.735184 C191.461979,363.631087 193.072985,363.397954 194.734981,363.299279 C194.619042,363.196266 193.072985,363.313375 192.373709,363.196266 C193.355852,363.318797 191.687787,363.416388 192.495111,363.468436 C190.077387,363.566027 187.260857,363.807835 184.329602,363.859884 C184.786074,363.515063 189.271884,363.598557 188.348013,363.18976 C186.911219,363.242893 186.916075,363.410966 185.763968,363.384942 C184.786074,363.177832 182.371992,363.360002 180.411347,363.366508 L181.278765,363.470605 C180.532749,363.555183 179.154835,363.490123 178.287416,363.470605 L178.513224,363.425062 L177.660374,363.490123 C177.527439,363.481448 177.495874,363.470605 177.498302,363.457593 C176.558649,363.563858 174.162171,363.46193 172.364205,363.523737 C172.366026,363.691811 174.146389,363.530243 175.007737,363.549762 C175.242043,363.587714 176.90586,363.65928 176.100356,363.775305 C173.865343,363.776389 172.310181,363.978077 169.78016,363.971571 L170.584449,364.023619 C169.78016,364.140728 168.688754,364.082174 167.483231,364.089764 C165.293136,363.972655 169.091203,363.854462 167.764884,363.757955 C168.624411,363.608316 170.122514,363.777474 170.350143,363.562774 L168.971621,363.32964 C167.819515,363.471689 166.550255,363.259158 165.742324,363.290604 L166.609742,363.394701 C166.439172,363.57687 165.634276,363.440243 165.228793,363.414219 L165.811523,363.679883 C167.073499,363.725425 167.937275,363.492291 168.855075,363.647352 C166.615813,363.731931 167.132379,363.946631 164.431788,363.953137 C164.310386,363.84904 164.951996,363.914101 165.231828,363.836028 C164.310386,363.764461 163.339168,363.979161 161.844101,363.895667 C162.700593,363.830606 164.085185,363.725425 162.988316,363.583376 L162.187062,363.78398 C161.49689,363.752534 161.779757,363.674461 161.49689,363.667955 C160.515354,363.628919 161.722698,363.876149 160.171786,363.8241 C159.941122,363.785064 159.426377,363.739522 159.652185,363.695064 C157.870001,363.687473 158.795085,363.75904 157.130055,363.856631 C158.62148,363.856631 158.678539,364.161331 157.130055,364.193861 C154.944209,364.161331 153.45339,364.330488 151.95286,364.078921 L150.974965,364.207958 C151.602614,364.020366 149.591588,364.143981 148.899595,364.111451 C148.670145,363.903257 152.178668,364.116873 152.178668,363.780727 C150.741873,363.747112 151.368308,363.644099 151.831457,363.553015 C150.275082,363.584461 151.255404,363.792654 150.568268,363.929282 C150.56584,363.844703 147.919273,363.903257 148.83768,363.721088 C147.515004,363.70916 147.286768,363.922775 146.311908,363.884823 C146.459412,363.801329 146.628161,363.695064 146.535288,363.588798 C146.419349,363.658196 145.170121,363.572533 144.927924,363.566027 C145.156767,363.606147 144.470237,363.74169 145.618702,363.683136 C145.332193,363.845787 142.913862,363.690726 142.976991,363.826269 C142.85741,363.638678 140.501601,363.787233 139.294863,363.710244 C139.413838,364.151572 141.533519,363.541087 141.939609,363.904342 C140.332852,364.053981 136.532964,363.918438 133.94467,364.11362 C131.705407,364.030125 133.94467,363.944462 133.486377,363.782895 C135.552642,363.710244 136.07285,363.840365 137.858069,363.762293 C135.900459,363.685304 132.681481,363.730847 131.245293,363.867474 C129.112864,363.886992 128.878558,363.426147 126.290264,363.537834 C126.635046,363.678798 126.578594,363.712413 127.387133,363.764461 C126.696961,363.815426 125.88903,363.764461 125.143621,363.764461 C124.685934,363.854462 126.296334,363.87398 125.261988,363.953137 C124.858326,363.926028 123.99637,363.90651 124.166333,363.810004 L124.338724,363.796992 C121.867583,363.927113 122.551077,363.453255 120.42654,363.725425 C120.598324,363.796992 121.059652,363.706991 121.579253,363.752534 C121.97988,363.862052 120.663881,364.017113 119.680523,364.06374 C119.855949,363.966149 118.819175,364.044222 118.130218,364.012776 C117.668283,363.850125 119.855949,363.966149 120.200125,363.855546 L118.300181,363.830606 L118.700201,363.855546 L116.633936,364.012776 C118.074373,363.960727 117.325321,364.213379 116.692209,364.232897 C115.257236,364.200367 113.816799,364.168921 113.98919,363.986752 C113.816799,364.168921 112.034615,364.161331 110.768998,364.201451 C112.149947,364.266512 110.943817,364.356512 110.54319,364.416151 L108.470855,364.235066 C110.656094,364.181933 108.009527,364.072415 108.523058,363.947715 C109.153135,363.760124 110.47824,363.856631 111.630953,363.882655 C109.381978,363.545424 108.467213,364.064824 106.509603,363.903257 C106.509603,363.819763 106.681994,363.721088 107.543342,363.740606 C107.197953,363.683136 105.760552,363.903257 104.436661,363.806751 C104.783871,363.865305 105.531709,364.033378 104.213281,364.104945 L102.483907,363.897836 C100.469846,363.852293 101.79495,364.119041 100.131741,364.215548 L101.221932,364.358681 C101.051969,364.540851 98.979634,364.358681 98.925003,364.559285 C99.9587424,364.565791 100.536617,364.41073 101.622559,364.4682 C102.032291,364.663381 100.244038,364.572297 99.6200304,364.677478 C97.3728764,364.592899 97.8354186,364.586393 96.1624969,364.430248 C96.1005818,364.125548 98.921968,364.053981 98.5662597,363.657112 C96.3822348,363.710244 93.2191015,363.807835 91.783521,363.691811 C89.8277322,363.782895 90.0043723,364.022535 90.2933094,364.197114 C89.4847711,364.230729 89.085965,364.20362 88.5669707,364.159162 L89.4847711,364.060487 C87.0700821,364.159162 85.6921676,364.263259 83.1572905,364.256753 C81.725352,364.308801 82.3020122,364.490971 82.6461874,364.634104 L81.0928467,364.667719 L81.3289739,364.705671 C80.9823708,364.899768 79.6026352,364.835792 78.5676818,364.828201 C78.5640397,364.744707 79.197152,364.725189 79.138879,364.67314 C78.2204716,364.601574 76.837701,364.622176 76.0935058,364.706755 C76.0904707,364.622176 76.7205479,364.433501 77.8137744,364.492055 C77.9291064,364.511573 77.8726544,364.543019 77.9861654,364.563622 L79.8278362,364.453019 C77.7008704,364.556031 76.4316108,364.342416 76.4862418,364.141813 C74.3586689,364.24591 78.2168296,364.348922 75.6862015,364.426995 C72.3476421,364.032294 69.3587209,364.537598 67.5115871,363.97374 C65.9624955,364.090849 64.1226458,364.28603 61.7067428,364.299042 C61.7067428,364.4682 60.0939151,364.364103 60.3282212,364.572297 C62.6330412,364.792418 64.6386049,364.246994 66.4869528,364.5582 C67.5176572,364.480128 67.170447,364.338079 67.6335962,364.246994 C68.5483615,364.233982 69.4133519,364.252416 69.532326,364.356512 C67.4047532,364.461694 68.9605218,364.76531 66.2593238,364.7729 C66.6022849,364.916033 68.7917728,364.8629 69.7660252,364.901937 C69.4807301,364.980009 69.7720953,365.07001 70.4046005,365.13507 C69.7120012,365.271698 68.1659447,365.388807 67.3604414,365.505916 C67.6445224,365.427843 67.1243142,365.3823 67.3574063,365.336758 L64.5402692,365.577482 C63.6758858,365.47447 63.4409726,365.34977 63.9047289,365.25977 C62.3483532,365.208806 59.7090702,365.435433 59.7017861,365.182781 C57.6907593,365.221818 60.3397544,365.331336 60.5121455,365.402903 L60.3397544,365.415915 L62.4667203,365.395313 C62.7016335,365.688085 60.0489963,365.32483 59.7090702,365.604591 C59.3740003,366.135919 56.7128649,365.435433 55.2214394,365.520012 L56.94535,365.137239 L55.4478544,365.221818 C56.3085957,365.072179 56.3061677,364.819527 57.6252021,364.663381 C55.5577233,364.651454 52.6203981,364.534345 51.2952935,364.605911 C50.7787273,364.47579 50.5504912,364.352175 50.7787273,364.223138 C48.7082135,364.464947 47.5555,364.100608 45.7708882,364.094102 C43.8776215,364.237235 47.671439,364.288199 46.2929175,364.476874 C45.7198993,364.379284 44.6831248,364.458441 44.1665586,364.496393 C44.7395768,364.42591 46.7554597,364.554947 48.1376233,364.620008 C47.1008489,364.612417 47.2161809,364.801093 46.9278508,364.879166 L48.6572246,364.918202 C48.5443205,365.151336 46.5308657,364.93772 45.7283974,365.054829 C46.2395005,364.84772 45.9566335,364.840129 46.4689506,364.63302 C44.97449,364.717599 42.7309781,364.717599 41.4617185,364.588562 C40.7138812,364.503983 42.0924027,364.484465 42.4966719,364.42591 C42.1518898,364.282777 41.0028184,364.510489 40.7138812,364.334826 C40.9433313,364.204705 41.6316815,364.321814 42.1518898,364.282777 L37.779591,364.217717 C37.779591,364.134222 38.8697824,364.108198 39.5587397,364.140728 C38.2336351,364.043137 37.2599898,364.089764 35.7090772,364.374946 C34.2140096,364.290368 32.4900989,364.167837 32.9999879,364.044222 C32.3110307,364.09627 32.7711449,364.174343 32.776608,364.258922 C30.7601181,364.213379 30.5367381,364.511573 29.3300006,364.518079 L30.2453729,364.674225 C28.2926192,364.511573 29.7913289,364.933383 28.0655971,364.810852 C28.3472502,364.648201 28.2343461,364.460609 27.943588,364.284946 C27.6588999,364.446513 26.5632454,364.304464 25.8166221,364.304464 C26.2803784,364.467115 24.2110786,364.454103 25.418423,364.61567 C23.6902633,364.746876 22.887188,364.526754 21.6215705,364.733864 C22.4246458,364.784828 20.1289309,364.903021 20.8227443,365.02013 C19.1510365,365.032058 18.0013581,364.837961 18.4560091,364.662297 C19.0344904,364.675309 19.9583609,364.746876 19.8934107,364.610249 L16.8492516,364.642779 C16.0947371,364.559285 15.1223058,364.520248 15.0015107,364.332657 C14.0272583,364.547357 12.1261005,364.183018 11.3800842,364.436754 C12.4138236,364.274102 13.2241831,364.494224 13.6199541,364.521333 L13.1483067,364.556031 C13.2162919,364.556031 13.2927753,364.559285 13.3941461,364.565791 L12.0781467,364.891093 C13.3431572,365.02013 12.3033477,364.677478 14.0916015,364.683984 C15.6413001,364.9876 10.5836861,365.143745 12.1971208,365.332421 C13.5179763,365.430012 13.2860982,365.137239 14.3762896,365.026636 L14.0916015,365.02013 L16.5633495,364.890009 C16.6792885,364.994106 15.9308442,365.078685 15.9308442,365.078685 C18.9246215,365.0776 19.3877707,365.240252 22.607963,365.278204 C22.3742639,365.239167 21.7429726,364.921455 23.1797672,364.869406 C24.2110786,364.791334 24.3306597,364.980009 25.18958,364.999528 C24.6760488,365.038564 24.2147206,365.214227 23.5263704,365.097118 L23.5822154,365.31724 C21.1705615,365.583988 22.435572,365.797604 19.1589277,365.876761 C19.008996,366.038328 16.6343697,366.121822 14.851579,366.075195 L15.7159624,366.220497 C13.8791477,366.499173 15.3687522,365.99387 13.0129433,366.227003 C12.0326208,365.935315 10.242546,365.592663 11.5640085,365.350855 C9.8941218,365.280372 9.32413865,365.436518 7.82300094,365.436518 C6.90277257,365.196878 8.28311513,365.176275 8.11011705,364.936636 C7.01324853,364.96266 5.634727,365.066757 6.44690746,365.203384 L4.36910948,365.106877 C4.31447851,365.054829 5.05806674,365.054829 5.34943193,365.060251 C4.54210756,365.008202 2.99058795,365.125311 2.53350882,365.216396 C2.70407885,365.204468 3.22550113,365.164348 3.45130915,365.204468 C2.58935381,365.268445 1.03844122,365.385553 0.925537207,365.450614 C2.18872668,365.326999 2.30405874,365.600253 3.62612826,365.444108 C3.51322425,365.508084 3.28680922,365.63929 2.59542392,365.606759 C3.68925739,365.748808 4.78187683,365.722784 5.24199101,365.885435 C4.31872759,365.763989 3.72810608,365.939653 3.53325561,365.964592 C4.36061133,366.011219 6.00864566,365.966761 6.56406054,365.897363 C6.6854627,366.169533 9.78364583,365.851821 8.6970965,366.130497 C8.86948756,366.03399 10.0780461,366.0264 10.7123724,366.09146 C10.6547063,366.208569 9.04673472,366.272546 8.35717045,366.409173 C5.13515711,366.540378 8.41422946,366.208569 7.66214308,366.123991 L5.20374933,366.143509 C5.45140974,366.182545 4.21917781,366.334353 5.82350736,366.319172 C5.0780981,366.48833 3.5271855,366.605439 2.262782,366.475318 C1.97141682,366.554475 2.89468025,366.540378 3.18058233,366.546884 C2.89468025,366.624957 1.34376765,366.911223 3.35782949,366.955681 C2.78177624,366.942669 4.33511688,366.82556 3.29894944,366.73556 C4.10384576,366.70303 6.29029867,366.819054 5.42530828,366.968694 C6.40563072,366.923151 8.24426644,366.812548 9.04916276,366.780018 C9.28104089,366.903633 8.3602055,366.832066 7.95593631,366.890621 L10.7785365,366.81797 L9.97121217,366.682427 C12.039298,366.780018 13.3607605,366.454715 15.0270051,366.357124 C14.7981621,366.57074 13.4159985,366.590258 12.3258071,366.700861 C13.3692586,366.961103 13.0129433,366.565318 14.741103,366.604354 C14.9735882,366.643391 15.0324682,366.694355 14.9195642,366.7605 L16.2944437,366.57074 C16.6962848,366.596764 16.4698698,366.643391 16.2944437,366.655319 C18.6532877,366.421101 16.2361706,366.350618 19.3999109,366.251943 C17.4957181,366.142425 17.7834412,366.401582 16.1791116,366.383149 C15.2528132,366.227003 18.0128913,366.103388 18.4760405,366.013388 C20.0263461,366.064352 20.2035932,366.38857 22.158775,366.212907 C20.7808605,366.317004 22.102323,366.414595 20.1477483,366.421101 C19.0551288,366.531704 20.7256225,366.518691 20.9532516,366.641222 C21.4692108,366.602186 20.6090765,366.414595 22.045871,366.447125 L21.988812,366.478571 L24.3421929,366.245437 C26.5335019,366.362546 29.2850818,365.985195 30.7850055,366.237847 L30.4377954,366.010135 C31.8163169,365.991701 33.7721057,365.984111 34.7487861,365.938568 C34.522978,366.068689 33.6015357,366.081701 32.6248553,366.127244 C35.1014593,366.165196 37.2824492,366.029653 38.9486938,365.846399 C37.7377073,365.684832 37.5634952,365.697844 36.4126027,365.588326 C38.0193603,365.270613 38.3155815,365.782423 40.3867024,365.626278 C40.4431544,365.846399 39.7535901,365.814953 40.2707633,366.029653 C41.1315046,365.878929 42.5725483,365.91146 43.5498357,365.781339 C44.0700439,365.996038 43.1540646,366.178208 41.0252778,366.197726 C39.4124501,366.00905 37.6320874,366.339775 36.3045548,366.15869 L37.1124861,366.295317 C35.4996584,366.361462 34.5254061,366.321341 33.1474916,366.425438 L33.2027296,366.392908 L32.5143793,366.614114 L33.2603956,366.614114 C32.7456504,366.737729 31.1947378,366.939416 30.7346236,366.945922 C33.0382296,366.912308 33.2027296,366.562065 34.294135,366.366883 C36.3664699,366.379896 37.1780433,366.769175 38.5565648,366.580499 C38.6688618,366.684596 39.8246104,366.795199 38.901347,366.891705 C37.7547036,366.95026 36.9461652,366.814717 36.8332612,366.964356 C38.0418197,366.956766 37.5810985,367.047851 39.4203412,367.021826 C39.7675514,366.826645 41.1436449,366.637969 42.4596443,366.482908 C43.8412009,366.378811 45.6264196,366.385317 46.7226811,366.443872 C45.3417316,366.462306 43.962603,366.652066 44.3104202,366.794114 C45.1153165,366.592427 47.0134393,366.955681 46.6067421,366.677005 C48.2159277,366.696524 50.9225889,366.688933 51.098015,366.928573 C49.5756319,367.017489 48.1005957,366.872187 46.8100907,366.924236 C47.165192,366.929657 47.5136162,366.99038 47.3041975,367.046766 L45.4036467,367.020742 C46.8410482,367.137851 46.5563602,367.215924 48.3974239,367.188815 C48.2814849,367.169297 48.0496067,367.130261 48.2238188,367.118333 C48.682719,367.111827 49.2593793,367.124839 49.7219215,367.117248 L49.7789805,367.33737 C51.157502,367.234357 53.8095322,367.513033 56.3346972,367.350382 L56.1076751,367.395924 C58.12113,367.441467 58.289879,367.006646 60.4763319,366.953513 C59.8432196,367.05761 60.1333708,367.148694 60.2462748,367.252791 C61.3370732,367.142188 61.9161615,367.323274 63.011209,367.381828 C61.7413424,367.252791 63.8683082,367.148694 62.9468658,367.077128 C62.8849507,366.855922 65.1333187,366.855922 66.2842112,366.881946 C66.9719545,367.167128 62.7180228,367.038091 64.4480035,367.32978 C65.597075,367.355804 65.8847981,367.193152 65.0762597,367.141104 C66.5148753,367.173634 68.7007212,367.20508 69.7411377,367.380744 C71.4601923,367.166044 72.1503636,367.283153 73.242983,367.003393 C72.3227547,367.016405 72.2681237,367.218092 71.1141962,367.107489 L72.3792067,366.90038 C74.0460583,366.886284 75.3723769,367.068453 76.5220554,367.093393 L75.3141039,367.185562 L75.3723769,367.153032 C74.9122627,367.243032 73.3583151,367.192068 73.5337412,367.347129 C74.6239326,367.153032 75.4913511,367.340623 76.9263246,367.203996 L76.8692656,367.23761 C79.3980726,367.074959 81.2452064,367.554238 82.849536,367.151947 C82.3894218,367.158453 81.4661584,367.002308 81.7538815,366.92532 C82.3329698,367.021826 83.8838824,366.989296 83.8286444,367.106405 L83.3096502,367.145441 C84.7476588,367.176887 85.6126492,367.196405 86.1322504,367.157369 C86.5304495,367.01532 86.1237522,366.904717 87.1605267,366.82556 C89.6941898,366.916645 86.1322504,367.157369 87.8555541,367.280984 L90.213791,367.130261 L90.7333923,367.261466 C94.2388797,367.390503 96.9418987,366.961103 100.678657,366.960019 C100.738144,367.181225 98.0369462,367.272309 97.1167179,367.286406 C98.2694314,367.480503 99.933248,367.213755 101.486589,367.350382 C102.928239,367.381828 104.014789,367.187731 103.786553,367.064116 C105.565701,366.986043 105.052777,367.194237 105.280406,367.232189 C105.857673,366.992549 108.099971,367.077128 109.534338,367.025079 L109.599895,367.159538 L111.839158,366.991465 C111.263712,366.977368 111.779671,366.855922 111.779064,366.771343 L112.353296,366.784355 C110.161987,366.41351 107.411014,367.043513 105.162039,366.622788 C105.850996,366.57074 104.927733,366.499173 105.619725,366.447125 C106.19335,366.460137 106.308682,366.479655 106.368169,366.531704 C106.712952,366.421101 107.631359,366.32351 106.4228,366.3311 C106.478645,366.044834 108.896369,366.115316 110.560186,366.01881 C111.885291,366.199895 109.181665,366.292064 108.494528,366.427607 C109.127641,366.407004 109.646635,366.283389 110.565042,366.35604 L110.339841,366.569656 C112.63677,366.452547 110.966883,366.382064 111.485878,366.174955 C112.111099,365.901701 113.555177,366.185798 114.187076,366.167364 L113.498118,366.219413 C115.279695,366.309413 115.681536,366.081701 117.288294,366.10122 L118.042808,366.270377 C116.022676,366.056762 115.574702,366.568571 114.421382,366.459053 C117.356279,366.659656 113.791305,366.90038 112.872897,367.08255 C114.140943,367.042429 115.288193,367.068453 115.977757,367.185562 C117.819428,366.905802 119.836525,367.288575 121.612639,366.956766 C122.590533,366.995802 120.754325,367.107489 121.788672,367.112911 C123.686188,367.138935 125.699642,367.099899 127.710669,366.976284 C128.750479,366.98279 128.572625,367.080381 128.863383,367.170381 C133.868794,367.299418 135.820941,366.786524 141.287073,366.909055 L140.484605,367.026164 C141.631855,367.051104 142.61157,367.09014 143.181554,366.933995 C144.626846,367.30484 148.071633,366.707367 149.913303,367.103152 C152.331027,367.173634 152.443931,366.855922 154.342661,366.796283 C154.342661,366.881946 153.766608,367.038091 154.748751,367.076043 C160.957258,366.945922 166.538722,366.917729 173.380948,366.852669 C173.323889,366.884115 172.979107,366.911223 172.807323,366.924236 C177.236681,366.955681 181.603516,366.598933 185.283823,366.714957 C185.975815,366.662909 188.043901,366.590258 187.408968,366.441703 C186.548833,366.421101 186.431073,366.234594 186.487525,366.117485 C189.764169,365.954833 188.098532,366.38857 190.286199,366.336522 C190.978191,366.622788 188.907677,366.525197 188.907677,366.778934 L192.071418,366.596764 C193.853601,366.686764 195.636392,366.525197 197.189733,366.659656 C196.49774,366.629294 196.963925,366.874356 195.811211,366.764837 C195.986637,366.751825 195.868877,366.732307 196.043696,366.719295 C193.394701,366.694355 194.602046,366.855922 192.243202,366.920982 C194.31675,366.849416 197.133281,366.776765 198.974951,366.835319 C198.570682,366.641222 200.468805,366.750741 200.985978,366.62821 L201.101917,366.646644 C201.101917,366.563149 202.245526,366.504595 202.596378,366.477486 L203.056492,366.724716 C203.864423,366.692186 202.827649,366.601101 203.632545,366.568571 C204.776154,366.510017 208.866799,366.482908 209.154522,366.74315 C210.539114,366.723632 210.939134,366.580499 212.372894,366.613029 C212.259383,366.67809 211.914601,366.70303 211.861791,366.736644 C214.90595,366.787608 218.645743,366.70303 221.527224,366.851585 C223.879391,366.786524 225.894666,366.746403 227.385485,366.57833 C226.753587,366.597848 224.910702,366.539294 226.063415,366.397245 C226.695921,366.293148 227.671994,366.332185 228.648674,366.286642 C228.419831,366.415679 231.125278,366.409173 229.170704,366.499173 C229.662989,366.782187 233.38518,366.443872 233.354222,366.724716 C233.811908,366.639053 236.588983,366.688933 237.628185,366.53821 C237.858849,366.66074 236.128261,366.622788 236.131904,366.707367 L237.396307,366.667246 L237.396307,366.751825 C239.817673,366.823392 240.268682,366.478571 241.706084,366.426522 L241.650239,366.459053 L242.626919,366.41351 L241.480883,366.641222 C243.031188,366.608692 243.834264,366.407004 245.559388,366.361462 L245.731779,366.433028 L246.771589,366.354956 C246.595556,366.367968 246.537283,366.400498 246.650187,366.420016 C247.629902,366.205316 249.8722,366.288811 250.790607,366.107726 C251.480172,366.139172 252.061688,366.407004 252.979488,366.22375 L252.807704,366.489414 C250.508954,366.523029 251.949998,366.301823 249.53106,366.400498 C251.316279,366.74315 256.321083,366.70303 259.657214,366.67809 C262.355377,366.501342 266.788984,366.786524 267.936841,366.390739 L267.651546,366.552306 L272.193808,366.687849 C276.049541,366.622788 280.016963,366.745319 282.950647,366.525197 L283.757364,366.659656 C286.796667,366.206401 294.109326,366.47098 296.115497,365.925556 C297.838194,366.048087 295.598324,366.13375 295.425933,366.230256 C296.695192,366.274714 298.818516,365.917966 300.028896,366.165196 C300.028896,366.24869 298.245498,366.243268 299.050394,366.294233 C299.97123,366.450378 300.369429,366.139172 301.409238,366.313751 C300.948517,366.152184 303.07609,365.963508 304.623967,365.930978 C304.338672,365.924472 304.338672,365.924472 304.216663,365.904954 C303.990855,365.781339 305.143569,365.807363 305.776074,365.787845 C305.776074,365.787845 305.717801,365.820375 305.546624,365.833387 C313.535493,365.624109 322.678897,365.526518 331.079319,365.680495 L329.531442,365.797604 C330.738179,365.706519 332.870608,365.770495 333.55653,365.803025 L333.381711,365.816037 C335.627044,366.068689 335.912946,365.569892 337.640499,365.860496 L337.299359,365.887604 C340.002985,365.880014 341.609742,366.152184 344.253274,366.00905 C346.329858,366.106641 346.100408,366.235678 347.540238,366.352787 C348.747582,366.346281 349.315138,366.190136 349.377053,366.157605 L348.798571,366.144593 C348.166066,365.996038 350.064189,366.022063 350.925537,365.955918 C350.292425,365.722784 350.634172,365.359529 348.213413,365.11989 C346.431836,365.197962 346.482218,364.743623 344.471191,364.782659 C343.323941,365.093865 341.592139,364.55061 339.757145,364.828201 C340.733826,364.614586 337.570086,364.713261 339.175022,364.479043 C338.426578,364.309886 335.268301,364.661213 333.824222,364.459525 C334.059135,364.413983 334.00329,364.363019 334.345037,364.33591 C332.330975,364.459525 332.963481,364.187355 331.46902,364.187355 L331.525472,364.408561 C330.948812,364.480128 330.775814,364.325067 330.259854,364.363019 C330.667159,364.389043 331.525472,364.492055 331.072035,364.58314 C330.381864,364.635188 329.804596,364.706755 329.059187,364.706755 C329.050689,364.622176 329.57029,364.584224 329.921142,364.557116 C329.921142,364.557116 328.30528,364.537598 328.192376,364.434585 C328.769036,364.364103 329.515659,364.364103 330.025548,364.239403 C327.901618,364.174343 329.855585,364.168921 328.820025,363.993258 C329.110176,364.252416 326.977747,364.103861 325.831104,364.162415 C325.71213,364.058318 326.636,364.129885 326.921295,364.051812 C324.729379,363.597473 323.641616,364.129885 320.825086,364.033378 C320.882145,364.001932 321.227534,363.974824 321.401746,363.961812 C320.07482,364.033378 319.152164,363.793739 318.29203,363.943378 C317.023377,363.897836 318.060151,363.650605 316.103149,363.657112 C316.679202,363.922775 313.800757,363.606147 313.749768,363.89133 L312.249844,363.723256 C310.924739,363.879402 312.603731,364.20362 310.012402,364.229644 C307.654772,364.125548 310.236389,363.762293 308.857868,363.613738 L308.281207,363.769883 L307.128494,363.65928 L307.30392,363.646268 C306.611928,363.697232 305.350559,363.652774 305.346917,363.56928 C305.459821,363.504219 306.210694,363.504219 306.318741,363.439159 C305.174526,363.581208 301.77648,363.04988 300.573384,363.479279 C299.894746,363.403375 298.496193,363.40446 298.675261,363.268917 C298.058538,363.457593 295.611678,363.209278 294.699948,363.330724 C294.818922,363.265664 293.952717,363.161567 293.261939,363.213615 C294.186417,363.285182 293.607328,363.355664 292.980286,363.459761 C292.168713,363.324218 289.871177,363.440243 289.522753,363.213615 C288.257135,363.337231 288.720284,363.498798 288.440452,363.662533 C287.629486,363.525906 285.039978,363.55193 285.497057,363.292772 C286.192084,363.324218 287.745425,363.376267 287.452239,363.200603 C286.130169,363.105181 286.878614,363.273254 285.789029,363.299279 C285.870369,363.251567 285.047869,363.138796 285.257288,363.063976 C284.613249,363.092169 283.712445,363.088916 282.794645,363.045542 C284.229011,363.162651 281.876238,363.227712 282.738193,363.331809 L284.116107,363.143133 C285.785994,363.130121 284.466353,363.286266 285.098858,363.351327 C282.164568,363.403375 282.743656,363.670124 279.984185,363.792654 C279.467012,363.748196 278.54739,363.67663 278.257846,363.670124 C279.178682,363.657112 279.000827,363.416388 278.478798,363.371929 C276.936384,363.572533 275.718113,363.242893 274.453102,363.19735 C275.549364,363.25482 274.972704,363.410966 274.57147,363.46952 C271.927938,363.611569 273.534695,363.37952 272.381982,363.268917 C268.304083,363.294941 265.710326,362.983735 262.43611,363.146386 L263.988236,363.367592 L264.504195,363.159398 C265.713968,363.32205 264.281422,363.62675 263.591858,363.763377 C263.417646,363.691811 261.40237,363.730847 262.207267,363.613738 L260.250264,363.704823 C260.541629,363.795907 261.806639,363.756871 260.893088,363.854462 C260.250264,363.789401 258.242272,363.743859 259.504247,363.620244 C258.471115,363.614822 257.149653,363.686389 257.377889,363.80892 C255.711644,363.821932 257.55028,363.543256 258.293261,363.458677 C256.973619,363.445665 257.143582,363.26458 257.542389,363.206025 L255.706181,363.232049 C256.106201,363.174579 256.106201,363.088916 256.505007,363.031446 C255.297056,362.953373 254.4351,363.186507 253.403182,363.011928 L252.941854,363.187591 C249.606936,363.044458 249.94929,363.018434 246.840788,363 L247.359782,363.130121 C245.006401,363.363255 245.635265,362.921927 242.471524,363.019518 C240.689948,363.097591 239.537234,363.156145 239.772147,363.364339 C238.740836,363.442412 238.50653,363.318797 238.042774,363.240724 C237.240912,363.357833 235.518216,363.572533 234.252598,363.443496 C235.113946,363.378436 235.803511,363.326387 236.608407,363.292772 C236.374101,363.086747 233.848329,363.248314 232.526866,363.150724 C231.605424,363.248314 228.614075,363.502051 226.950258,363.68422 C227.701738,363.853378 227.416442,364.099523 225.921982,364.268681 C226.151432,364.13856 223.905492,364.13856 222.874788,364.047475 C223.385891,363.924944 220.569361,363.743859 222.750957,363.691811 C223.383463,363.755787 223.674221,363.93145 224.537997,363.86639 C224.018396,363.736269 222.633197,363.587714 221.196403,363.470605 C221.306879,363.405544 222.057751,363.32205 222.803767,363.32205 C222.39707,363.37952 222.633197,363.418556 222.690863,363.470605" id="Fill-20"></path>
        </g>
    </g>
</svg>